<?xml version="1.0" encoding="UTF-8" standalone="no"?><svg xmlns="http://www.w3.org/2000/svg" xmlns:xlink="http://www.w3.org/1999/xlink" fill="#000000" height="295.2" preserveAspectRatio="xMidYMid meet" version="1" viewBox="16.0 14.1 293.2 295.2" width="293.2" zoomAndPan="magnify"><g id="change1_1"><path d="M258.4,158.3c-1.8,0-3.3,1.5-3.3,3.4c0,1.8,1.5,3.3,3.4,3.3s3.3-1.5,3.3-3.4l0,0 C261.8,159.8,260.3,158.3,258.4,158.3z M258.4,206.5c-1.8,0-3.3,1.5-3.3,3.4c0,1.8,1.5,3.3,3.4,3.3s3.3-1.5,3.3-3.4l0,0 C261.8,208,260.3,206.5,258.4,206.5z M258.4,254.6c-1.8,0-3.3,1.5-3.3,3.4c0,1.8,1.5,3.3,3.4,3.3s3.3-1.5,3.3-3.4l0,0 C261.8,256.1,260.3,254.6,258.4,254.6z M258.4,303.2c-1.6,0-2.8,1.3-2.8,2.9s1.3,2.8,2.9,2.8s2.8-1.3,2.8-2.9l0,0 C261.3,304.4,260,303.2,258.4,303.2z M258.4,110.2c-1.8,0-3.3,1.5-3.3,3.3s1.5,3.3,3.3,3.3s3.3-1.5,3.3-3.3l0,0 C261.8,111.7,260.2,110.2,258.4,110.2z M258.4,14.5c-1.6,0-2.8,1.3-2.8,2.9s1.3,2.8,2.9,2.8s2.8-1.3,2.8-2.9l0,0 C261.3,15.7,260,14.5,258.4,14.5z M162.6,156.9c-2.4,0-4.4,2-4.4,4.4s2,4.4,4.4,4.4s4.4-2,4.4-4.4S165,156.9,162.6,156.9 L162.6,156.9L162.6,156.9z M162.6,205.7c-2.1,0-3.9,1.8-3.9,3.8c0,2.1,1.8,3.7,3.9,3.7s3.9-1.8,3.9-3.7 C166.5,207.3,164.7,205.7,162.6,205.7C162.6,205.5,162.6,205.5,162.6,205.7L162.6,205.7z M162.6,254.1c-1.9,0-3.4,1.6-3.4,3.4 c0,1.9,1.6,3.4,3.4,3.4s3.4-1.6,3.4-3.4C166,255.6,164.5,254.1,162.6,254.1L162.6,254.1L162.6,254.1z M162.6,302.8 c-1.6,0-2.9,1.3-2.9,2.9s1.3,2.9,2.9,2.9s2.9-1.3,2.9-2.9S164.2,302.8,162.6,302.8L162.6,302.8L162.6,302.8z M162.6,109.4 c-2.1,0-3.8,1.8-3.8,3.9c0,2.1,1.8,3.8,3.9,3.8c2.1,0,3.8-1.8,3.8-3.8C166.5,111.1,164.7,109.4,162.6,109.4 C162.6,109.3,162.6,109.3,162.6,109.4L162.6,109.4z M162.6,14.1c-1.6,0-2.9,1.3-2.9,2.9s1.3,2.9,2.9,2.9s2.9-1.3,2.9-2.9 S164.2,14.1,162.6,14.1L162.6,14.1L162.6,14.1z M114.7,158.3c-2.1,0-3.9,1.7-3.9,3.8c0,2.1,1.7,3.9,3.8,3.9s3.9-1.7,3.9-3.8l0,0 C118.5,160.1,116.8,158.3,114.7,158.3z M114.7,206.4c-2.1,0-3.9,1.7-3.9,3.8c0,2.1,1.7,3.9,3.8,3.9s3.9-1.7,3.9-3.8l0,0 C118.5,208.2,116.8,206.4,114.7,206.4z M114.7,255c-1.8,0-3.4,1.5-3.4,3.3s1.5,3.4,3.3,3.4c1.8,0,3.4-1.5,3.4-3.3l0,0 C118,256.5,116.5,255,114.7,255z M114.7,303.6c-1.6,0-2.9,1.2-2.9,2.8s1.2,2.9,2.8,2.9c1.6,0,2.9-1.2,2.9-2.8l0,0 C117.5,304.9,116.3,303.6,114.7,303.6z M114.7,110.2c-2.1,0-3.8,1.7-3.8,3.8c0,2.1,1.7,3.8,3.8,3.8s3.8-1.7,3.8-3.8l0,0 C118.5,112,116.8,110.2,114.7,110.2z M66.8,158.8c-1.8,0-3.4,1.5-3.4,3.3s1.5,3.4,3.3,3.4s3.4-1.5,3.4-3.3l0,0 C70.2,160.3,68.6,158.7,66.8,158.8C66.8,158.7,66.8,158.7,66.8,158.8L66.8,158.8z M66.8,206.9c-1.8,0-3.4,1.5-3.4,3.3 c0,1.8,1.5,3.4,3.3,3.4s3.4-1.5,3.4-3.3l0,0C70.2,208.4,68.6,206.8,66.8,206.9C66.8,206.8,66.8,206.8,66.8,206.9L66.8,206.9z M66.8,255c-1.8,0-3.4,1.5-3.4,3.3s1.5,3.4,3.3,3.4s3.4-1.5,3.4-3.3l0,0C70.2,256.5,68.6,254.9,66.8,255 C66.8,254.9,66.8,254.9,66.8,255L66.8,255z M66.8,303.6c-1.6,0-2.9,1.2-2.9,2.8c0,1.6,1.2,2.9,2.8,2.9s2.9-1.2,2.9-2.8l0,0 C69.7,304.8,68.4,303.5,66.8,303.6C66.8,303.5,66.8,303.5,66.8,303.6L66.8,303.6z M210.6,62.6c-1.8,0-3.4,1.5-3.4,3.3 c0,1.8,1.5,3.4,3.3,3.4s3.4-1.5,3.4-3.3l0,0C214,64.1,212.4,62.5,210.6,62.6C210.6,62.5,210.6,62.5,210.6,62.6L210.6,62.6z M114.7,15c-1.6,0-2.9,1.2-2.9,2.8c0,1.6,1.2,2.9,2.8,2.9s2.9-1.2,2.9-2.8l0,0C117.6,16.2,116.3,14.9,114.7,15 C114.7,14.9,114.7,14.9,114.7,15L114.7,15z M18.9,159.2c-1.6,0-2.9,1.2-2.9,2.8c0,1.6,1.2,2.9,2.8,2.9c1.6,0,2.9-1.2,2.9-2.8l0,0 C21.7,160.5,20.5,159.2,18.9,159.2z M18.9,207.3c-1.6,0-2.9,1.2-2.9,2.8c0,1.6,1.2,2.9,2.8,2.9c1.6,0,2.9-1.2,2.9-2.8l0,0 C21.7,208.6,20.5,207.3,18.9,207.3z M18.9,255.4c-1.6,0-2.9,1.2-2.9,2.8s1.2,2.9,2.8,2.9c1.6,0,2.9-1.2,2.9-2.8l0,0 C21.7,256.7,20.5,255.4,18.9,255.4z M18.9,303.5c-1.6,0-2.9,1.2-2.9,2.8s1.2,2.9,2.8,2.9c1.6,0,2.9-1.2,2.9-2.8l0,0 C21.7,304.8,20.5,303.5,18.9,303.5z M18.9,63.1c-1.6,0-2.9,1.3-2.9,2.8s1.3,2.8,2.9,2.8s2.9-1.3,2.9-2.8l0,0 C21.6,64.3,20.5,63.1,18.9,63.1z M18.9,111.2c-1.6,0-2.9,1.3-2.9,2.8s1.3,2.8,2.9,2.8s2.9-1.3,2.9-2.8l0,0 C21.6,112.4,20.5,111.2,18.9,111.2z M18.9,14.9c-1.6,0-2.9,1.2-2.9,2.8c0,1.6,1.2,2.9,2.8,2.9c1.6,0,2.9-1.2,2.9-2.8l0,0 C21.7,16.2,20.5,14.9,18.9,14.9z M210.5,157.8c-2.1,0-3.9,1.7-3.9,3.9s1.7,3.9,3.9,3.9s3.9-1.7,3.9-3.9l0,0 C214.4,159.5,212.6,157.8,210.5,157.8z M210.5,205.9c-2.1,0-3.9,1.8-3.9,3.9s1.8,3.9,3.9,3.9s3.9-1.8,3.9-3.9l0,0 C214.4,207.7,212.6,205.9,210.5,205.9z M210.5,254.5c-1.9,0-3.4,1.6-3.4,3.4c0,1.9,1.6,3.4,3.4,3.4s3.4-1.6,3.4-3.4l0,0 C213.9,256.1,212.4,254.5,210.5,254.5z M210.5,303.2c-1.6,0-2.9,1.3-2.9,2.9s1.3,2.9,2.9,2.9s2.9-1.3,2.9-2.9l0,0 C213.4,304.4,212.1,303.2,210.5,303.2z M258.4,62.2c-1.8,0-3.4,1.5-3.4,3.3s1.5,3.3,3.4,3.3s3.4-1.5,3.4-3.3l0,0 C261.8,63.6,260.2,62.2,258.4,62.2z M210.5,109.7c-2.1,0-3.8,1.8-3.8,3.9c0,2.1,1.8,3.8,3.9,3.8c2.1,0,3.8-1.8,3.8-3.9l0,0 C214.4,111.4,212.6,109.7,210.5,109.7z M210.5,14.4c-1.6,0-2.9,1.3-2.9,2.8c0,1.6,1.3,2.9,2.9,2.9s2.9-1.3,2.9-2.9l0,0 C213.4,15.7,212.1,14.4,210.5,14.4z M306.3,158.9c-1.6,0-2.8,1.3-2.8,2.9c0,1.6,1.3,2.8,2.9,2.8s2.8-1.3,2.8-2.9l0,0 C309.2,160.1,307.9,158.9,306.3,158.9z M306.3,207c-1.6,0-2.8,1.3-2.8,2.9c0,1.6,1.3,2.8,2.9,2.8s2.8-1.3,2.8-2.9l0,0 C309.2,208.2,307.9,207,306.3,207z M306.3,255.1c-1.6,0-2.8,1.3-2.8,2.9s1.3,2.8,2.9,2.8s2.8-1.3,2.8-2.9l0,0 C309.2,256.3,307.9,255.1,306.3,255.1z M306.3,303.2c-1.6,0-2.8,1.3-2.8,2.9s1.3,2.8,2.9,2.8s2.8-1.3,2.8-2.9l0,0 C309.2,304.4,307.9,303.2,306.3,303.2z M306.3,62.7c-1.5,0-2.8,1.3-2.8,2.8c0,1.5,1.3,2.8,2.8,2.8s2.8-1.3,2.8-2.8l0,0 C309.2,63.9,307.8,62.7,306.3,62.7z M306.3,14.5c-1.6,0-2.8,1.3-2.8,2.9s1.3,2.8,2.9,2.8s2.8-1.3,2.8-2.9l0,0 C309.2,15.7,307.9,14.5,306.3,14.5z M66.8,110.7c-1.9,0-3.3,1.5-3.3,3.3s1.5,3.3,3.3,3.3s3.3-1.5,3.3-3.3l0,0 C70.2,112.1,68.6,110.7,66.8,110.7L66.8,110.7L66.8,110.7z M66.8,15c-1.6,0-2.9,1.2-2.9,2.8c0,1.6,1.2,2.9,2.8,2.9s2.9-1.2,2.9-2.8 l0,0C69.7,16.2,68.4,14.9,66.8,15C66.8,14.9,66.8,14.9,66.8,15L66.8,15z M162.7,62.6c-1.8,0-3.4,1.5-3.4,3.3c0,1.8,1.5,3.4,3.3,3.4 s3.4-1.5,3.4-3.3l0,0C166.1,64.1,164.5,62.5,162.7,62.6C162.7,62.5,162.7,62.5,162.7,62.6L162.7,62.6z M114.7,62.6 c-1.8,0-3.3,1.4-3.3,3.3c0,1.8,1.4,3.3,3.3,3.3s3.3-1.4,3.3-3.3l0,0C118.1,64.1,116.6,62.6,114.7,62.6L114.7,62.6L114.7,62.6z M66.8,62.6c-1.9,0-3.3,1.5-3.3,3.3s1.5,3.3,3.3,3.3s3.3-1.5,3.3-3.3l0,0C70.2,64,68.7,62.6,66.8,62.6L66.8,62.6L66.8,62.6z M306.3,110.8c-1.5,0-2.8,1.3-2.8,2.8s1.3,2.8,2.8,2.8s2.8-1.3,2.8-2.8l0,0C309.2,112,307.8,110.8,306.3,110.8z" fill="#ffcf3e"/></g></svg>